<svg id="svg" version="1.1" xmlns="http://www.w3.org/2000/svg" xmlns:xlink="http://www.w3.org/1999/xlink" width="400" height="150" viewBox="0, 0, 400,150"><g id="svgg"><path id="path0" d="M212.208 35.782 C 212.369 35.823,212.631 35.823,212.792 35.782 C 212.952 35.740,212.821 35.705,212.500 35.705 C 212.179 35.705,212.048 35.740,212.208 35.782 M228.044 35.786 C 228.297 35.825,228.672 35.824,228.877 35.784 C 229.082 35.744,228.875 35.713,228.417 35.714 C 227.958 35.716,227.791 35.748,228.044 35.786 M57.709 42.417 C 57.711 42.783,57.745 42.914,57.785 42.706 C 57.824 42.499,57.823 42.199,57.781 42.040 C 57.739 41.880,57.707 42.050,57.709 42.417 M324.044 42.620 C 324.297 42.658,324.672 42.657,324.877 42.617 C 325.082 42.578,324.875 42.546,324.417 42.548 C 323.958 42.549,323.791 42.581,324.044 42.620 M172.125 43.290 C 172.790 43.322,173.877 43.322,174.542 43.290 C 175.206 43.259,174.662 43.233,173.333 43.233 C 172.004 43.233,171.460 43.259,172.125 43.290 M190.464 43.290 C 190.948 43.324,191.698 43.323,192.131 43.289 C 192.563 43.255,192.167 43.227,191.250 43.228 C 190.333 43.228,189.980 43.256,190.464 43.290 M257.708 43.291 C 258.419 43.322,259.581 43.322,260.292 43.291 C 261.002 43.259,260.421 43.234,259.000 43.234 C 257.579 43.234,256.998 43.259,257.708 43.291 M275.458 43.290 C 275.940 43.323,276.727 43.323,277.208 43.290 C 277.690 43.256,277.296 43.228,276.333 43.228 C 275.371 43.228,274.977 43.256,275.458 43.290 M344.711 43.286 C 344.964 43.325,345.339 43.324,345.544 43.284 C 345.749 43.244,345.542 43.213,345.083 43.214 C 344.625 43.216,344.457 43.248,344.711 43.286 M348.216 43.291 C 348.931 43.322,350.056 43.322,350.716 43.290 C 351.376 43.259,350.792 43.233,349.417 43.233 C 348.042 43.234,347.501 43.259,348.216 43.291 M251.545 44.000 C 251.545 44.413,251.578 44.581,251.618 44.375 C 251.657 44.169,251.657 43.831,251.618 43.625 C 251.578 43.419,251.545 43.587,251.545 44.000 M167.875 44.953 C 168.127 44.991,168.540 44.991,168.792 44.953 C 169.044 44.915,168.837 44.883,168.333 44.883 C 167.829 44.883,167.623 44.915,167.875 44.953 M177.795 44.954 C 178.094 44.991,178.544 44.990,178.795 44.952 C 179.045 44.914,178.800 44.884,178.250 44.885 C 177.700 44.886,177.495 44.917,177.795 44.954 M194.627 44.951 C 194.834 44.991,195.134 44.990,195.294 44.948 C 195.453 44.906,195.283 44.874,194.917 44.875 C 194.550 44.877,194.420 44.911,194.627 44.951 M252.458 44.955 C 252.848 44.990,253.485 44.990,253.875 44.955 C 254.265 44.920,253.946 44.892,253.167 44.892 C 252.387 44.892,252.069 44.920,252.458 44.955 M264.125 44.954 C 264.423 44.991,264.910 44.991,265.208 44.954 C 265.506 44.917,265.262 44.887,264.667 44.887 C 264.071 44.887,263.827 44.917,264.125 44.954 M270.213 44.956 C 270.652 44.990,271.327 44.990,271.713 44.955 C 272.100 44.920,271.742 44.892,270.917 44.892 C 270.092 44.893,269.775 44.922,270.213 44.956 M341.625 44.954 C 341.923 44.991,342.410 44.991,342.708 44.954 C 343.006 44.917,342.762 44.887,342.167 44.887 C 341.571 44.887,341.327 44.917,341.625 44.954 M355.542 44.948 C 355.702 44.990,355.965 44.990,356.125 44.948 C 356.285 44.906,356.154 44.872,355.833 44.872 C 355.512 44.872,355.381 44.906,355.542 44.948 M279.705 47.833 C 279.705 48.154,279.740 48.285,279.782 48.125 C 279.823 47.965,279.823 47.702,279.782 47.542 C 279.740 47.381,279.705 47.512,279.705 47.833 M345.042 48.750 C 345.044 49.117,345.078 49.247,345.118 49.040 C 345.158 48.832,345.156 48.532,345.115 48.373 C 345.073 48.214,345.040 48.383,345.042 48.750 M44.324 49.458 L 43.750 50.083 44.375 49.509 C 44.719 49.193,45.000 48.912,45.000 48.884 C 45.000 48.757,44.859 48.877,44.324 49.458 M273.872 51.000 C 273.872 51.321,273.906 51.452,273.948 51.292 C 273.990 51.131,273.990 50.869,273.948 50.708 C 273.906 50.548,273.872 50.679,273.872 51.000 M170.390 52.750 C 170.391 53.483,170.420 53.763,170.456 53.371 C 170.491 52.979,170.490 52.379,170.454 52.037 C 170.419 51.696,170.390 52.017,170.390 52.750 M262.058 53.500 C 262.058 54.279,262.087 54.598,262.122 54.208 C 262.157 53.819,262.157 53.181,262.122 52.792 C 262.087 52.402,262.058 52.721,262.058 53.500 M256.223 53.667 C 256.223 54.354,256.252 54.635,256.288 54.292 C 256.324 53.948,256.324 53.385,256.288 53.042 C 256.252 52.698,256.223 52.979,256.223 53.667 M176.042 53.250 C 176.044 53.617,176.078 53.747,176.118 53.540 C 176.158 53.332,176.156 53.032,176.115 52.873 C 176.073 52.714,176.040 52.883,176.042 53.250 M98.375 54.917 C 98.377 55.283,98.411 55.414,98.451 55.206 C 98.491 54.999,98.490 54.699,98.448 54.540 C 98.406 54.380,98.374 54.550,98.375 54.917 M303.388 58.750 C 303.389 59.392,303.419 59.634,303.455 59.288 C 303.491 58.942,303.490 58.417,303.454 58.121 C 303.417 57.825,303.387 58.108,303.388 58.750 M333.458 61.454 C 333.756 61.491,334.244 61.491,334.542 61.454 C 334.840 61.417,334.596 61.387,334.000 61.387 C 333.404 61.387,333.160 61.417,333.458 61.454 M256.223 63.333 C 256.223 64.021,256.252 64.302,256.288 63.958 C 256.324 63.615,256.324 63.052,256.288 62.708 C 256.252 62.365,256.223 62.646,256.223 63.333 M262.059 64.250 C 262.059 65.075,262.087 65.434,262.122 65.047 C 262.157 64.660,262.157 63.985,262.123 63.547 C 262.088 63.109,262.060 63.425,262.059 64.250 M328.121 63.120 C 328.417 63.157,328.942 63.158,329.288 63.122 C 329.634 63.086,329.392 63.055,328.750 63.055 C 328.108 63.054,327.825 63.083,328.121 63.120 M338.458 63.121 C 338.756 63.158,339.244 63.158,339.542 63.121 C 339.840 63.084,339.596 63.053,339.000 63.053 C 338.404 63.053,338.160 63.084,338.458 63.121 M170.392 64.750 C 170.392 65.575,170.420 65.934,170.455 65.547 C 170.490 65.160,170.490 64.485,170.456 64.047 C 170.422 63.609,170.393 63.925,170.392 64.750 M273.881 64.250 C 273.882 64.708,273.915 64.876,273.953 64.623 C 273.991 64.369,273.990 63.994,273.951 63.789 C 273.911 63.584,273.880 63.792,273.881 64.250 M279.728 66.750 C 279.728 67.667,279.756 68.020,279.790 67.536 C 279.824 67.052,279.823 66.302,279.789 65.869 C 279.755 65.437,279.727 65.833,279.728 66.750 M176.053 67.500 C 176.053 68.096,176.084 68.340,176.121 68.042 C 176.158 67.744,176.158 67.256,176.121 66.958 C 176.084 66.660,176.053 66.904,176.053 67.500 M350.881 67.583 C 350.882 68.042,350.915 68.209,350.953 67.956 C 350.991 67.703,350.990 67.328,350.951 67.123 C 350.911 66.918,350.880 67.125,350.881 67.583 M222.872 67.500 C 222.872 67.821,222.906 67.952,222.948 67.792 C 222.990 67.631,222.990 67.369,222.948 67.208 C 222.906 67.048,222.872 67.179,222.872 67.500 M216.050 69.167 C 216.050 69.671,216.081 69.877,216.119 69.625 C 216.158 69.373,216.158 68.960,216.119 68.708 C 216.081 68.456,216.050 68.662,216.050 69.167 M32.375 68.782 C 32.535 68.823,32.798 68.823,32.958 68.782 C 33.119 68.740,32.987 68.705,32.667 68.705 C 32.346 68.705,32.215 68.740,32.375 68.782 M130.379 74.333 C 130.379 74.746,130.411 74.915,130.451 74.708 C 130.491 74.502,130.491 74.165,130.451 73.958 C 130.411 73.752,130.379 73.921,130.379 74.333 M150.875 74.250 C 150.877 74.617,150.911 74.747,150.951 74.540 C 150.991 74.332,150.990 74.032,150.948 73.873 C 150.906 73.714,150.874 73.883,150.875 74.250 M198.164 74.450 C 198.119 74.927,198.144 75.256,198.219 75.181 C 198.294 75.106,198.330 74.716,198.299 74.314 L 198.244 73.583 198.164 74.450 M323.625 73.787 C 323.923 73.824,324.410 73.824,324.708 73.787 C 325.006 73.750,324.762 73.720,324.167 73.720 C 323.571 73.720,323.327 73.750,323.625 73.787 M185.209 74.417 C 185.211 74.783,185.245 74.914,185.285 74.706 C 185.324 74.499,185.323 74.199,185.281 74.040 C 185.239 73.880,185.207 74.050,185.209 74.417 M281.460 75.285 C 281.668 75.324,281.968 75.323,282.127 75.281 C 282.286 75.239,282.117 75.207,281.750 75.209 C 281.383 75.211,281.253 75.245,281.460 75.285 M363.544 75.286 C 363.797 75.325,364.172 75.324,364.377 75.284 C 364.582 75.244,364.375 75.213,363.917 75.214 C 363.458 75.216,363.291 75.248,363.544 75.286 M92.875 85.782 C 93.035 85.823,93.298 85.823,93.458 85.782 C 93.619 85.740,93.487 85.705,93.167 85.705 C 92.846 85.705,92.715 85.740,92.875 85.782 M111.208 85.782 C 111.369 85.823,111.631 85.823,111.792 85.782 C 111.952 85.740,111.821 85.705,111.500 85.705 C 111.179 85.705,111.048 85.740,111.208 85.782 M220.127 85.785 C 220.334 85.824,220.634 85.823,220.794 85.781 C 220.953 85.739,220.783 85.707,220.417 85.709 C 220.050 85.711,219.920 85.745,220.127 85.785 M225.460 85.785 C 225.668 85.824,225.968 85.823,226.127 85.781 C 226.286 85.739,226.117 85.707,225.750 85.709 C 225.383 85.711,225.253 85.745,225.460 85.785 M225.209 89.917 C 225.211 90.283,225.245 90.414,225.285 90.206 C 225.324 89.999,225.323 89.699,225.281 89.540 C 225.239 89.380,225.207 89.550,225.209 89.917 M220.872 90.167 C 220.872 90.487,220.906 90.619,220.948 90.458 C 220.990 90.298,220.990 90.035,220.948 89.875 C 220.906 89.715,220.872 89.846,220.872 90.167 M255.545 91.000 C 255.545 91.412,255.578 91.581,255.618 91.375 C 255.657 91.169,255.657 90.831,255.618 90.625 C 255.578 90.419,255.545 90.587,255.545 91.000 M207.225 94.000 C 207.225 94.779,207.254 95.098,207.289 94.708 C 207.324 94.319,207.324 93.681,207.289 93.292 C 207.254 92.902,207.225 93.221,207.225 94.000 M112.872 93.833 C 112.872 94.154,112.906 94.285,112.948 94.125 C 112.990 93.965,112.990 93.702,112.948 93.542 C 112.906 93.381,112.872 93.513,112.872 93.833 M358.980 95.036 C 359.057 95.499,359.080 95.523,359.133 95.189 C 359.167 94.972,359.126 94.726,359.042 94.642 C 358.950 94.550,358.925 94.705,358.980 95.036 M203.741 100.000 C 203.741 102.979,203.764 104.198,203.791 102.708 C 203.819 101.219,203.819 98.781,203.791 97.292 C 203.764 95.802,203.741 97.021,203.741 100.000 M96.879 96.333 C 96.879 96.746,96.911 96.915,96.951 96.708 C 96.991 96.502,96.991 96.165,96.951 95.958 C 96.911 95.752,96.879 95.921,96.879 96.333 M259.073 97.050 C 259.027 97.170,259.011 98.239,259.037 99.425 L 259.085 101.583 259.167 99.208 C 259.249 96.868,259.238 96.620,259.073 97.050 M310.383 98.167 C 310.383 98.671,310.415 98.877,310.453 98.625 C 310.491 98.373,310.491 97.960,310.453 97.708 C 310.415 97.456,310.383 97.662,310.383 98.167 M193.998 98.617 C 193.953 99.186,193.977 99.590,194.051 99.516 C 194.125 99.442,194.162 98.976,194.132 98.482 L 194.079 97.583 193.998 98.617 M137.883 98.833 C 137.883 99.337,137.915 99.544,137.953 99.292 C 137.991 99.040,137.991 98.627,137.953 98.375 C 137.915 98.123,137.883 98.329,137.883 98.833 M250.883 98.833 C 250.883 99.337,250.915 99.544,250.953 99.292 C 250.991 99.040,250.991 98.627,250.953 98.375 C 250.915 98.123,250.883 98.329,250.883 98.833 M220.883 99.500 C 220.883 100.004,220.915 100.210,220.953 99.958 C 220.991 99.706,220.991 99.294,220.953 99.042 C 220.915 98.790,220.883 98.996,220.883 99.500 M342.070 102.333 C 342.070 104.212,342.095 104.981,342.124 104.042 C 342.154 103.102,342.154 101.565,342.124 100.625 C 342.095 99.685,342.070 100.454,342.070 102.333 M345.570 102.167 C 345.570 103.954,345.594 104.685,345.624 103.792 C 345.654 102.898,345.654 101.435,345.624 100.542 C 345.594 99.648,345.570 100.379,345.570 102.167 M207.229 102.250 C 207.229 103.258,207.257 103.649,207.290 103.119 C 207.323 102.588,207.323 101.763,207.289 101.286 C 207.256 100.808,207.229 101.242,207.229 102.250 M194.064 102.667 C 194.064 103.813,194.091 104.281,194.123 103.708 C 194.156 103.135,194.156 102.198,194.123 101.625 C 194.091 101.052,194.064 101.521,194.064 102.667 M315.375 101.417 C 315.377 101.783,315.411 101.914,315.451 101.706 C 315.491 101.499,315.490 101.199,315.448 101.040 C 315.406 100.880,315.374 101.050,315.375 101.417 M265.879 101.667 C 265.879 102.079,265.911 102.248,265.951 102.042 C 265.991 101.835,265.991 101.498,265.951 101.292 C 265.911 101.085,265.879 101.254,265.879 101.667 M134.375 102.750 C 134.377 103.117,134.411 103.247,134.451 103.040 C 134.491 102.832,134.490 102.532,134.448 102.373 C 134.406 102.214,134.374 102.383,134.375 102.750 M92.958 106.284 C 93.165 106.324,93.502 106.324,93.708 106.284 C 93.915 106.245,93.746 106.212,93.333 106.212 C 92.921 106.212,92.752 106.245,92.958 106.284 M98.960 106.285 C 99.168 106.324,99.468 106.323,99.627 106.281 C 99.786 106.239,99.617 106.207,99.250 106.209 C 98.883 106.211,98.753 106.245,98.960 106.285 M217.941 106.295 C 217.897 106.365,218.174 106.399,218.556 106.369 C 219.677 106.283,219.814 106.207,218.885 106.186 C 218.409 106.175,217.984 106.224,217.941 106.295 M226.131 106.290 C 226.615 106.324,227.365 106.323,227.797 106.289 C 228.230 106.255,227.833 106.227,226.917 106.228 C 226.000 106.228,225.646 106.256,226.131 106.290 M93.875 107.448 C 94.035 107.490,94.298 107.490,94.458 107.448 C 94.619 107.406,94.487 107.372,94.167 107.372 C 93.846 107.372,93.715 107.406,93.875 107.448 M231.713 107.456 C 232.152 107.490,232.827 107.490,233.213 107.455 C 233.600 107.420,233.242 107.392,232.417 107.392 C 231.592 107.393,231.275 107.422,231.713 107.456 " stroke="none" fill="#70b089" fill-rule="evenodd"></path><path id="path1" d="M52.393 35.140 C 52.449 35.492,52.684 36.431,52.914 37.226 C 53.635 39.712,53.401 40.547,52.178 39.860 C 51.320 39.378,51.319 39.379,51.683 40.335 C 52.582 42.701,51.157 43.118,49.482 40.979 C 49.171 40.582,48.327 39.660,47.606 38.930 L 46.296 37.603 46.080 38.230 C 45.961 38.576,45.834 38.888,45.798 38.925 C 45.761 38.961,45.235 38.630,44.630 38.188 C 42.401 36.564,42.191 36.615,42.840 38.632 C 43.548 40.834,43.503 40.972,42.285 40.351 C 41.945 40.178,41.667 40.061,41.667 40.091 C 41.667 40.360,43.621 44.406,44.319 45.583 C 45.581 47.711,45.614 48.214,44.566 49.335 C 43.507 50.466,43.276 50.425,40.540 48.617 C 39.372 47.845,37.830 46.894,37.112 46.504 L 35.807 45.796 36.163 46.493 C 36.512 47.177,36.822 48.833,36.601 48.833 C 36.539 48.833,36.297 48.708,36.062 48.554 C 35.828 48.401,35.046 48.151,34.326 47.998 L 33.016 47.722 33.533 48.375 C 33.818 48.734,34.404 49.416,34.836 49.889 C 37.683 53.007,36.650 55.661,33.203 54.083 L 32.296 53.668 32.587 54.126 C 33.418 55.434,34.159 55.893,36.000 56.240 C 47.301 58.371,51.859 61.845,48.991 66.140 C 47.887 67.794,47.268 67.818,43.305 66.359 C 42.072 65.906,40.469 65.415,39.741 65.267 C 38.508 65.018,35.169 64.510,34.716 64.503 C 34.580 64.501,34.619 64.726,34.838 65.208 C 35.561 66.801,35.261 66.967,33.371 66.023 C 31.950 65.313,30.861 64.917,30.719 65.059 C 30.535 65.243,31.827 66.771,32.907 67.647 C 34.146 68.652,34.150 68.708,32.978 68.830 L 32.143 68.917 33.697 69.830 C 38.028 72.378,39.503 73.634,39.267 74.576 C 38.994 75.662,36.258 77.836,34.750 78.165 L 34.250 78.273 35.309 78.965 C 38.090 80.780,39.123 80.892,43.599 79.863 C 53.637 77.557,55.272 77.504,58.226 79.394 C 60.702 80.978,60.222 84.108,57.376 84.936 C 56.068 85.316,50.654 85.190,49.373 84.750 C 48.329 84.391,48.304 84.405,48.522 85.255 C 48.884 86.663,49.153 86.435,46.000 87.401 C 43.293 88.231,43.360 88.409,46.667 89.182 C 50.197 90.008,50.326 90.123,48.625 90.921 C 47.055 91.658,47.421 91.652,51.391 90.876 C 61.110 88.978,66.477 90.623,71.196 96.948 C 75.089 102.166,78.165 104.562,82.268 105.574 C 85.631 106.403,86.246 106.316,86.049 105.040 C 85.920 104.204,86.043 104.251,83.944 104.242 C 80.829 104.229,78.136 103.023,75.335 100.388 C 68.190 93.667,70.074 89.047,82.011 84.018 C 84.829 82.831,86.570 81.803,88.369 80.266 C 89.908 78.950,90.293 78.398,89.560 78.558 C 87.125 79.089,86.407 78.835,86.912 77.621 C 87.941 75.150,88.429 73.167,88.008 73.167 C 87.904 73.167,87.118 73.429,86.261 73.750 C 84.214 74.517,84.163 74.497,83.896 72.824 C 83.694 71.564,83.296 72.071,81.206 76.250 C 78.258 82.143,74.231 84.382,72.891 80.873 C 72.207 79.080,73.902 76.619,77.940 73.546 C 79.655 72.240,82.183 69.500,81.673 69.500 C 81.246 69.500,79.356 70.231,78.622 70.680 C 77.089 71.620,77.068 70.603,78.561 67.681 C 79.460 65.922,80.579 62.978,80.468 62.662 C 80.440 62.582,79.673 63.111,78.764 63.838 C 75.792 66.214,75.000 66.273,75.000 64.120 L 75.000 63.422 74.367 64.503 C 71.589 69.247,67.894 73.497,66.546 73.499 C 65.105 73.502,65.541 68.840,67.274 65.708 C 69.456 61.763,72.893 59.246,77.000 58.583 C 78.518 58.339,78.432 58.208,76.458 57.764 C 75.783 57.612,75.870 57.421,77.294 55.934 C 79.574 53.554,79.748 52.903,77.850 53.851 C 76.638 54.457,76.469 54.404,77.074 53.610 L 77.515 53.032 76.966 53.159 C 76.664 53.229,75.950 53.484,75.380 53.726 C 74.055 54.289,73.657 54.280,72.333 53.654 C 70.204 52.648,70.162 52.295,71.863 49.724 C 73.486 47.270,74.796 44.067,74.634 42.944 C 74.574 42.527,73.399 43.472,72.876 44.357 C 72.262 45.397,71.667 44.736,71.667 43.013 C 71.667 42.045,72.046 41.058,72.919 39.756 L 73.250 39.261 72.417 39.827 C 71.958 40.138,70.405 41.592,68.964 43.057 C 66.111 45.960,65.582 46.095,66.455 43.696 C 66.633 43.206,65.865 43.983,65.084 45.083 C 64.074 46.506,63.784 47.148,63.091 49.500 C 61.307 55.558,59.045 57.166,57.708 53.327 C 57.247 52.003,57.192 50.818,57.473 48.333 C 57.865 44.880,57.684 39.293,57.144 38.167 C 56.377 36.567,56.150 36.404,56.274 37.542 C 56.438 39.042,55.781 38.651,53.655 35.986 C 52.310 34.299,52.252 34.260,52.393 35.140 M108.583 35.281 C 89.795 37.717,84.175 64.926,100.750 73.211 C 115.844 80.757,132.167 71.728,132.167 55.833 C 132.167 42.813,121.589 33.596,108.583 35.281 M211.903 35.986 C 211.865 36.024,211.833 36.448,211.833 36.928 L 211.833 37.801 213.404 37.859 C 216.409 37.969,216.194 36.539,216.133 56.038 L 216.083 72.159 215.622 72.621 C 215.188 73.055,215.056 73.087,213.489 73.141 L 211.818 73.198 211.867 74.190 L 211.917 75.182 219.625 75.178 C 223.865 75.175,227.412 75.172,227.508 75.170 C 227.616 75.168,227.664 74.797,227.633 74.208 L 227.583 73.250 225.808 73.167 C 222.871 73.029,222.978 73.350,222.877 64.375 L 222.800 57.500 224.120 57.500 C 227.511 57.500,228.829 58.913,233.992 68.083 C 235.945 71.551,237.291 73.694,238.106 74.634 L 238.583 75.185 243.901 75.183 C 249.692 75.181,249.545 75.208,249.469 74.150 L 249.417 73.422 247.990 73.219 C 245.147 72.814,244.664 72.300,238.525 63.138 C 235.556 58.706,234.512 57.490,233.166 56.896 C 232.225 56.481,232.335 56.255,233.589 56.024 C 239.178 54.994,242.248 51.774,242.748 46.417 C 243.173 41.865,239.748 37.867,234.083 36.302 C 232.849 35.961,212.222 35.667,211.903 35.986 M113.490 37.775 C 123.169 40.473,128.088 55.522,122.851 66.417 C 117.387 77.786,103.164 75.056,99.415 61.919 C 95.477 48.116,103.181 34.901,113.490 37.775 M229.244 38.082 C 238.170 40.471,237.361 53.275,228.139 55.566 C 227.008 55.847,224.112 55.951,223.275 55.741 L 222.828 55.629 222.923 47.606 C 223.038 37.879,223.005 38.119,224.250 37.774 C 224.864 37.605,228.239 37.812,229.244 38.082 M149.006 42.338 C 148.390 42.867,146.183 44.012,145.083 44.372 C 144.513 44.559,144.425 44.651,144.476 45.004 C 144.669 46.354,144.520 46.847,141.427 55.079 C 134.564 73.352,134.485 73.500,131.675 73.500 L 130.500 73.500 130.500 74.333 L 130.500 75.167 136.092 75.167 L 141.685 75.167 141.634 74.375 L 141.583 73.583 139.976 73.500 C 137.127 73.352,137.110 73.211,139.176 66.908 L 140.566 62.667 145.855 62.667 C 150.748 62.667,151.151 62.688,151.230 62.958 C 151.278 63.119,151.767 64.712,152.317 66.500 C 154.452 73.437,154.450 73.500,152.167 73.500 L 151.000 73.500 151.000 74.333 L 151.000 75.167 157.830 75.167 L 164.660 75.167 164.761 74.767 C 165.019 73.736,164.864 73.590,163.417 73.500 C 160.571 73.322,160.236 72.744,156.607 61.750 C 155.821 59.367,154.028 53.930,152.623 49.668 C 149.871 41.316,149.967 41.512,149.006 42.338 M320.750 42.901 C 317.050 43.522,314.285 44.766,311.680 46.982 C 304.919 52.731,304.735 64.694,311.306 71.251 C 316.437 76.371,326.841 77.258,335.340 73.299 L 336.910 72.568 336.913 68.187 L 336.917 63.806 337.384 63.403 C 337.782 63.060,338.026 63.000,339.009 63.000 L 340.167 63.000 340.167 62.208 L 340.167 61.417 333.750 61.417 L 327.333 61.417 327.333 62.192 L 327.333 62.968 328.911 63.026 C 331.207 63.110,331.083 62.858,331.083 67.464 C 331.083 72.501,330.987 72.681,327.876 73.449 C 318.728 75.708,312.325 69.050,312.709 57.678 C 313.207 42.961,329.244 39.326,334.751 52.682 L 335.328 54.083 335.946 54.043 C 336.286 54.021,336.625 53.942,336.699 53.868 C 336.838 53.728,336.394 44.234,336.236 43.978 C 336.025 43.635,335.518 43.887,335.018 44.583 C 334.370 45.485,334.302 45.491,333.072 44.750 C 330.201 43.021,324.835 42.216,320.750 42.901 M167.333 44.023 L 167.333 44.797 168.580 44.860 C 170.619 44.963,170.417 43.389,170.417 59.155 C 170.417 75.027,170.615 73.500,168.558 73.500 L 167.333 73.500 167.333 74.333 L 167.333 75.167 173.250 75.167 L 179.167 75.167 179.167 74.333 L 179.167 73.500 177.942 73.500 C 175.962 73.500,176.094 74.001,176.026 66.233 L 175.968 59.667 176.780 59.667 C 178.087 59.667,177.997 59.579,181.064 63.833 C 187.343 72.542,187.884 73.667,185.796 73.667 C 185.359 73.667,185.333 73.708,185.333 74.417 L 185.333 75.167 191.759 75.167 L 198.185 75.167 198.134 74.375 L 198.083 73.583 196.750 73.492 C 195.242 73.389,194.994 73.283,194.145 72.388 C 193.439 71.643,182.018 57.073,181.900 56.768 C 181.753 56.384,187.213 50.109,190.131 47.309 C 192.053 45.464,192.811 45.043,194.515 44.873 L 195.750 44.750 195.750 44.013 L 195.750 43.276 190.917 43.271 L 186.083 43.265 186.033 44.049 L 185.982 44.833 186.737 44.833 C 187.681 44.833,188.168 45.374,187.817 46.030 C 187.594 46.448,184.797 49.964,181.611 53.833 C 178.349 57.795,177.925 58.167,176.675 58.167 L 176.000 58.167 176.000 55.292 C 176.002 45.247,176.087 44.833,178.159 44.833 L 179.333 44.833 179.333 44.042 L 179.333 43.250 173.333 43.250 L 167.333 43.250 167.333 44.023 M251.667 44.023 L 251.667 44.796 253.498 44.859 C 256.464 44.961,256.306 44.233,256.323 57.848 C 256.343 74.071,256.464 73.363,253.640 73.500 L 251.917 73.583 251.917 74.333 L 251.917 75.083 259.051 75.127 L 266.185 75.170 266.134 74.377 L 266.083 73.583 264.482 73.536 C 263.013 73.492,262.848 73.454,262.482 73.064 L 262.083 72.640 262.036 59.574 C 262.010 52.388,262.051 46.262,262.127 45.962 C 262.324 45.182,263.094 44.834,264.625 44.834 L 265.833 44.833 265.833 44.042 L 265.833 43.250 258.750 43.250 L 251.667 43.250 251.667 44.023 M269.403 43.319 C 269.365 43.358,269.333 43.714,269.333 44.111 L 269.333 44.833 270.892 44.833 C 274.187 44.833,273.917 43.583,273.914 58.833 C 273.910 74.716,274.138 73.500,271.167 73.500 L 269.333 73.500 269.333 74.343 L 269.333 75.186 279.292 75.123 C 288.884 75.062,289.311 75.046,290.911 74.686 C 298.877 72.892,303.248 67.270,303.236 58.833 C 303.223 50.195,298.364 44.861,289.250 43.482 C 287.994 43.292,269.581 43.141,269.403 43.319 M341.051 43.442 C 341.010 43.548,341.001 43.886,341.030 44.192 L 341.083 44.750 342.635 44.848 C 345.328 45.018,345.167 44.045,345.167 60.074 C 345.167 74.967,345.435 73.382,342.889 73.500 L 341.083 73.583 341.033 74.375 L 340.982 75.167 353.820 75.167 L 366.659 75.167 366.898 74.792 C 367.029 74.585,367.601 72.959,368.168 71.178 C 368.736 69.397,369.236 67.846,369.280 67.731 C 369.345 67.562,368.570 67.000,368.273 67.000 C 368.231 67.000,367.574 67.731,366.814 68.625 C 362.921 73.201,361.980 73.664,356.583 73.664 C 350.991 73.664,350.905 73.529,350.780 64.542 L 350.708 59.333 351.896 59.339 C 356.797 59.362,357.834 59.826,358.693 62.378 L 359.155 63.750 359.786 63.694 C 360.675 63.614,360.666 63.647,360.484 61.250 C 360.393 60.058,360.341 57.771,360.368 56.167 L 360.417 53.250 359.653 53.200 L 358.890 53.151 358.684 54.070 C 358.001 57.125,357.209 57.672,353.290 57.797 L 350.612 57.882 350.723 53.581 C 350.784 51.215,350.833 48.258,350.833 47.009 L 350.833 44.739 354.125 44.796 C 360.153 44.901,361.395 45.531,365.807 50.724 C 366.227 51.219,366.434 51.343,366.717 51.267 C 367.560 51.042,367.564 51.092,366.402 47.062 L 365.298 43.231 353.211 43.241 C 344.235 43.248,341.106 43.300,341.051 43.442 M285.761 44.842 C 292.736 46.077,297.192 51.527,297.202 58.833 C 297.213 67.364,292.012 73.520,284.750 73.571 C 281.739 73.593,280.461 72.949,279.924 71.138 C 279.587 70.004,279.551 46.978,279.884 46.000 C 280.298 44.786,282.735 44.306,285.761 44.842 M147.147 49.292 C 147.520 50.518,149.797 58.044,150.601 60.708 C 150.683 60.981,150.385 61.000,145.938 61.000 L 141.188 61.000 141.659 59.625 C 142.080 58.396,145.378 49.276,145.817 48.125 C 146.188 47.153,146.608 47.521,147.147 49.292 M205.250 86.006 C 204.333 86.366,203.035 86.820,202.366 87.015 C 200.840 87.462,200.762 87.858,202.102 88.356 C 203.787 88.982,203.809 89.123,203.824 99.171 C 203.835 106.679,203.918 106.289,202.288 106.367 C 201.294 106.415,201.248 106.436,201.197 106.875 L 201.145 107.333 205.500 107.333 L 209.855 107.333 209.803 106.875 C 209.752 106.437,209.705 106.415,208.722 106.367 C 207.128 106.291,207.250 107.180,207.247 95.612 C 207.244 89.121,207.184 85.426,207.080 85.398 C 206.990 85.373,206.167 85.647,205.250 86.006 M257.500 85.927 C 256.813 86.237,255.590 86.729,254.784 87.021 C 253.100 87.630,252.968 87.918,254.208 88.279 C 255.650 88.699,255.572 88.153,255.667 98.492 C 255.761 108.817,255.647 108.132,257.139 107.284 L 257.839 106.887 258.794 107.212 C 264.423 109.124,269.912 105.118,269.315 99.532 C 268.836 95.048,263.612 92.806,259.749 95.428 C 259.421 95.651,259.110 95.833,259.060 95.833 C 259.009 95.833,259.023 93.471,259.090 90.583 C 259.193 86.157,259.176 85.336,258.981 85.348 C 258.854 85.356,258.188 85.617,257.500 85.927 M91.833 86.272 C 91.833 86.790,91.839 86.794,92.836 86.866 C 95.631 87.068,95.925 88.462,95.520 99.583 C 95.290 105.879,95.142 106.333,93.311 106.333 C 92.521 106.333,92.500 106.346,92.500 106.833 L 92.500 107.333 96.250 107.333 L 100.000 107.333 100.000 106.833 C 100.000 106.346,99.979 106.333,99.189 106.333 C 98.227 106.333,97.610 105.927,97.351 105.122 C 96.957 103.900,96.626 89.833,96.990 89.833 C 97.076 89.833,98.493 91.352,100.138 93.208 C 104.878 98.558,107.862 101.878,110.537 104.778 C 114.408 108.976,114.092 109.317,114.221 100.792 C 114.315 94.525,114.478 90.746,114.757 88.361 C 114.892 87.207,115.257 86.833,116.250 86.833 C 116.948 86.833,117.523 85.844,116.833 85.830 C 116.742 85.828,115.073 85.824,113.125 85.822 L 109.583 85.817 109.531 86.325 L 109.479 86.833 110.364 86.834 C 111.381 86.835,112.255 87.272,112.493 87.898 C 112.906 88.985,113.235 101.779,112.846 101.639 C 112.690 101.583,108.661 97.031,103.000 90.515 C 101.304 88.563,99.692 86.707,99.417 86.392 L 98.917 85.818 95.375 85.784 L 91.833 85.750 91.833 86.272 M218.236 85.819 C 217.722 86.333,218.217 86.833,219.238 86.833 C 221.096 86.833,221.056 86.584,220.975 97.711 C 220.907 106.923,221.060 106.198,219.166 106.305 C 218.007 106.371,218.000 106.374,218.000 106.852 L 218.000 107.333 227.295 107.333 L 236.590 107.333 237.392 104.339 C 237.833 102.693,238.146 101.268,238.087 101.173 C 237.797 100.704,237.348 101.052,236.615 102.314 C 234.556 105.857,233.863 106.214,229.003 106.234 L 225.250 106.250 225.250 96.778 C 225.250 85.778,225.042 86.833,227.209 86.833 L 228.521 86.833 228.469 86.323 L 228.417 85.812 223.361 85.781 C 220.581 85.764,218.274 85.781,218.236 85.819 M146.065 87.997 C 145.227 88.335,144.776 89.436,145.172 90.176 C 145.672 91.111,147.709 91.317,148.513 90.513 C 149.954 89.072,148.106 87.172,146.065 87.997 M137.289 91.629 C 136.249 92.912,134.291 94.504,132.413 95.594 C 131.756 95.975,132.239 96.333,133.411 96.333 L 134.500 96.333 134.500 100.925 C 134.500 105.987,134.525 106.128,135.541 106.887 C 137.029 107.998,140.184 107.846,141.762 106.588 C 142.288 106.168,142.173 105.569,141.602 105.754 C 138.491 106.765,137.834 105.848,137.837 100.500 C 137.838 95.904,137.604 96.333,140.107 96.333 C 142.392 96.333,142.253 96.402,142.562 95.125 L 142.673 94.667 140.315 94.667 L 137.957 94.667 138.074 93.022 C 138.207 91.144,137.992 90.762,137.289 91.629 M318.386 91.470 C 316.488 93.512,315.293 94.503,313.413 95.594 C 312.752 95.977,313.240 96.333,314.426 96.333 L 315.528 96.333 315.476 100.971 C 315.415 106.419,315.532 106.768,317.650 107.477 C 319.510 108.100,323.872 106.800,322.965 105.894 C 322.779 105.708,322.621 105.692,322.268 105.826 C 322.017 105.922,321.437 106.000,320.978 106.000 C 319.039 106.000,318.842 105.475,318.837 100.292 L 318.833 96.333 321.004 96.333 C 323.406 96.333,323.252 96.406,323.562 95.125 L 323.673 94.667 321.314 94.667 L 318.955 94.667 319.037 93.084 C 319.130 91.315,318.949 90.865,318.386 91.470 M295.571 94.564 C 295.044 94.809,294.415 95.311,293.904 95.893 C 292.908 97.029,292.898 97.030,292.763 96.042 C 292.481 93.990,292.751 94.057,289.843 95.310 C 287.229 96.436,287.204 96.468,288.390 97.137 C 289.626 97.834,289.667 98.002,289.667 102.338 C 289.667 106.441,289.718 106.286,288.328 106.365 C 287.473 106.414,287.413 106.445,287.364 106.875 L 287.311 107.333 291.489 107.333 L 295.667 107.333 295.667 106.841 C 295.667 106.349,295.665 106.348,294.546 106.299 C 293.009 106.232,293.005 106.222,293.003 102.250 C 293.001 97.450,293.636 96.193,295.702 96.913 C 297.306 97.472,298.667 96.912,298.667 95.693 C 298.667 94.245,297.315 93.752,295.571 94.564 M348.333 94.382 C 347.989 94.489,347.281 95.030,346.608 95.699 C 345.197 97.100,345.352 97.158,345.084 95.125 C 344.954 94.136,345.028 94.131,342.334 95.296 C 339.771 96.405,339.703 96.484,340.789 97.075 C 342.081 97.778,342.076 97.763,342.136 101.948 C 342.200 106.383,342.215 106.333,340.827 106.333 C 339.834 106.333,339.833 106.334,339.833 106.833 L 339.833 107.333 344.000 107.333 L 348.167 107.333 348.167 106.833 L 348.167 106.333 347.093 106.333 C 345.499 106.333,345.500 106.337,345.501 102.255 C 345.502 97.393,346.102 96.188,348.160 96.914 C 349.800 97.493,351.154 96.881,351.163 95.556 C 351.171 94.444,349.869 93.904,348.333 94.382 M123.425 94.592 C 120.123 95.421,117.740 97.907,119.020 99.187 C 120.055 100.222,121.667 99.134,121.667 97.399 L 121.667 96.317 122.375 95.996 C 124.701 94.940,126.056 95.885,126.076 98.576 L 126.083 99.569 123.432 100.785 C 120.374 102.187,119.832 102.554,119.350 103.548 C 117.535 107.299,121.952 109.135,125.776 106.219 C 126.205 105.892,126.411 105.815,126.461 105.965 C 127.088 107.849,129.979 108.218,131.625 106.626 C 132.467 105.811,132.202 104.939,131.304 105.568 C 130.723 105.975,129.856 105.916,129.683 105.458 C 129.605 105.252,129.486 103.075,129.419 100.621 C 129.280 95.588,129.245 95.454,127.925 94.773 C 127.068 94.330,124.825 94.240,123.425 94.592 M146.292 95.194 C 143.510 96.137,143.250 96.399,144.584 96.908 C 145.835 97.386,145.834 97.380,145.831 101.912 C 145.828 106.507,145.886 106.298,144.579 106.366 C 143.631 106.414,143.581 106.439,143.531 106.875 L 143.478 107.333 147.489 107.333 L 151.500 107.333 151.500 106.833 C 151.500 106.334,151.498 106.333,150.518 106.333 C 149.246 106.333,149.333 106.796,149.333 100.070 C 149.333 94.713,149.314 94.334,149.042 94.346 C 148.881 94.354,147.644 94.735,146.292 95.194 M157.793 94.593 C 154.264 95.448,151.962 98.716,152.503 102.103 C 153.382 107.608,160.852 109.611,165.046 105.468 C 170.118 100.459,165.035 92.838,157.793 94.593 M170.879 95.299 C 168.418 96.360,168.219 96.598,169.322 97.161 C 170.498 97.761,170.500 97.770,170.500 102.201 L 170.500 106.160 170.125 106.243 C 169.919 106.288,169.525 106.346,169.250 106.371 C 168.842 106.408,168.740 106.501,168.697 106.875 L 168.645 107.333 172.083 107.333 L 175.522 107.333 175.469 106.875 C 175.424 106.477,175.329 106.406,174.750 106.333 L 174.083 106.250 174.039 102.083 C 173.983 96.746,174.340 96.000,176.951 96.000 C 179.445 96.000,179.948 97.215,179.743 102.750 C 179.615 106.205,179.576 106.333,178.661 106.333 C 178.038 106.333,178.000 106.362,178.000 106.833 L 178.000 107.333 181.583 107.333 L 185.167 107.333 185.167 106.833 C 185.167 106.347,185.144 106.333,184.367 106.333 C 183.139 106.333,183.167 106.437,183.166 101.842 C 183.165 99.471,183.090 97.482,182.988 97.113 C 182.179 94.198,177.766 93.452,174.790 95.727 C 173.808 96.478,173.913 96.515,173.680 95.333 C 173.442 94.125,173.597 94.127,170.879 95.299 M191.568 94.570 C 188.224 95.333,185.603 98.186,187.253 99.267 C 188.438 100.043,189.742 99.062,189.697 97.429 C 189.661 96.145,189.986 95.861,191.652 95.716 C 193.450 95.560,194.014 96.120,194.133 98.182 L 194.210 99.503 192.480 100.311 C 191.528 100.756,190.334 101.306,189.826 101.535 C 187.436 102.609,186.440 104.572,187.341 106.432 C 188.150 108.104,191.206 108.077,193.575 106.378 C 194.121 105.986,194.424 105.856,194.470 105.992 C 195.155 108.047,198.795 108.200,200.016 106.225 C 200.318 105.735,200.341 105.607,200.149 105.486 C 199.827 105.281,199.713 105.295,199.255 105.595 C 197.816 106.538,197.508 105.764,197.493 101.167 C 197.475 95.970,197.350 95.454,195.922 94.711 C 195.242 94.358,192.842 94.280,191.568 94.570 M245.250 94.494 C 241.828 95.229,239.174 97.840,240.500 99.167 C 241.557 100.223,243.288 99.056,243.117 97.403 C 242.995 96.218,243.708 95.667,245.364 95.667 C 246.995 95.667,247.500 96.319,247.500 98.426 L 247.500 99.635 245.084 100.693 C 241.300 102.349,240.499 103.122,240.501 105.118 C 240.502 107.973,244.135 108.644,247.032 106.326 C 247.792 105.717,247.731 105.711,248.179 106.436 C 249.154 108.014,251.916 108.055,253.215 106.511 C 253.935 105.656,253.641 104.982,252.804 105.568 C 252.233 105.968,251.390 105.912,251.134 105.458 C 250.985 105.193,250.898 103.755,250.837 100.553 C 250.739 95.458,250.739 95.456,249.416 94.770 C 248.688 94.392,246.424 94.242,245.250 94.494 M276.658 94.638 C 272.761 95.655,270.488 99.800,271.844 103.417 C 273.488 107.804,279.996 109.103,283.754 105.795 C 289.366 100.855,284.165 92.678,276.658 94.638 M304.198 94.661 C 301.234 95.461,299.147 97.478,299.801 98.913 C 300.480 100.403,302.720 99.232,302.647 97.425 C 302.596 96.173,303.226 95.667,304.833 95.667 C 306.491 95.667,307.000 96.286,307.000 98.301 L 307.000 99.619 305.542 100.282 C 304.740 100.646,303.667 101.115,303.157 101.323 C 300.439 102.434,299.195 104.760,300.327 106.617 C 301.257 108.142,305.107 107.910,306.682 106.233 C 307.178 105.706,307.365 105.733,307.675 106.379 C 308.450 107.988,311.407 108.065,312.715 106.511 C 313.435 105.656,313.141 104.982,312.304 105.568 C 311.732 105.969,310.888 105.913,310.642 105.458 C 310.504 105.203,310.408 103.635,310.344 100.553 C 310.238 95.459,310.237 95.455,308.916 94.770 C 307.972 94.280,305.798 94.230,304.198 94.661 M329.500 94.516 C 325.294 95.338,322.688 100.095,324.466 103.706 C 327.034 108.923,334.660 109.063,337.726 103.949 C 340.716 98.962,335.771 93.292,329.500 94.516 M351.727 94.917 C 351.540 95.403,351.801 95.667,352.466 95.667 C 352.927 95.667,353.214 95.779,353.481 96.064 C 353.816 96.420,357.344 104.925,358.076 107.139 L 358.370 108.028 357.349 110.078 C 355.806 113.178,355.775 113.206,354.333 112.734 C 353.248 112.379,352.428 112.623,352.052 113.412 C 351.504 114.562,352.380 115.582,353.898 115.560 C 355.846 115.531,356.051 115.232,361.309 104.730 C 365.555 96.252,365.916 95.667,366.900 95.667 C 367.457 95.667,367.500 95.630,367.500 95.163 L 367.500 94.658 364.792 94.704 L 362.083 94.750 362.083 95.167 C 362.083 95.529,362.166 95.590,362.717 95.636 C 363.609 95.709,363.823 96.209,363.416 97.274 C 362.753 99.011,360.550 103.733,360.376 103.791 C 360.137 103.871,357.797 96.777,357.866 96.183 C 357.907 95.829,358.016 95.740,358.458 95.698 C 358.935 95.652,359.000 95.586,359.000 95.156 L 359.000 94.667 355.411 94.667 C 352.375 94.667,351.808 94.705,351.727 94.917 M161.230 96.057 C 164.326 98.418,163.552 106.000,160.169 106.454 C 157.372 106.829,155.722 104.060,156.168 99.738 C 156.534 96.193,159.029 94.378,161.230 96.057 M280.289 96.109 C 283.035 98.315,282.691 105.220,279.781 106.322 C 276.991 107.379,275.043 104.907,275.207 100.517 C 275.364 96.308,277.852 94.150,280.289 96.109 M332.321 95.827 C 334.209 96.790,335.122 100.014,334.403 103.177 C 333.299 108.032,328.386 107.513,327.659 102.464 C 326.981 97.751,329.385 94.329,332.321 95.827 M263.640 96.531 C 267.022 98.153,266.648 105.563,263.136 106.508 C 260.100 107.326,259.137 105.951,259.032 100.642 L 258.960 97.034 259.392 96.751 C 260.608 95.954,262.259 95.869,263.640 96.531 M194.167 102.676 L 194.167 104.852 193.654 105.320 C 191.748 107.062,189.565 105.439,190.647 103.083 C 191.025 102.261,193.272 100.594,194.125 100.504 C 194.148 100.502,194.167 101.479,194.167 102.676 M247.147 105.271 C 245.747 106.761,243.833 106.123,243.833 104.167 C 243.833 102.913,244.482 102.126,246.303 101.169 L 247.417 100.583 247.463 102.734 C 247.507 104.749,247.487 104.909,247.147 105.271 M126.167 102.654 C 126.167 105.166,125.178 106.469,123.576 106.067 C 121.386 105.517,122.039 102.674,124.681 101.250 C 126.224 100.419,126.167 100.365,126.167 102.654 M307.000 102.819 L 307.000 104.970 306.504 105.388 C 304.082 107.426,301.945 104.314,304.277 102.143 C 304.703 101.746,306.564 100.695,306.875 100.675 C 306.944 100.670,307.000 101.635,307.000 102.819 " stroke="none" fill="#1c7434" fill-rule="evenodd"></path><path id="path2" d="M216.211 35.953 C 216.464 35.991,216.839 35.990,217.044 35.951 C 217.249 35.911,217.042 35.880,216.583 35.881 C 216.125 35.882,215.957 35.915,216.211 35.953 M222.044 35.953 C 222.297 35.991,222.672 35.990,222.877 35.951 C 223.082 35.911,222.875 35.880,222.417 35.881 C 221.958 35.882,221.791 35.915,222.044 35.953 M126.167 40.917 C 126.478 41.237,126.770 41.500,126.815 41.500 C 126.861 41.500,126.644 41.237,126.333 40.917 C 126.022 40.596,125.730 40.333,125.685 40.333 C 125.639 40.333,125.856 40.596,126.167 40.917 M176.542 43.282 C 176.702 43.323,176.965 43.323,177.125 43.282 C 177.285 43.240,177.154 43.205,176.833 43.205 C 176.512 43.205,176.381 43.240,176.542 43.282 M254.292 43.284 C 254.498 43.324,254.835 43.324,255.042 43.284 C 255.248 43.245,255.079 43.212,254.667 43.212 C 254.254 43.212,254.085 43.245,254.292 43.284 M263.042 43.282 C 263.202 43.323,263.465 43.323,263.625 43.282 C 263.785 43.240,263.654 43.205,263.333 43.205 C 263.012 43.205,262.881 43.240,263.042 43.282 M272.627 43.285 C 272.834 43.324,273.134 43.323,273.294 43.281 C 273.453 43.239,273.283 43.207,272.917 43.209 C 272.550 43.211,272.420 43.245,272.627 43.285 M357.292 43.290 C 357.773 43.323,358.560 43.323,359.042 43.290 C 359.523 43.256,359.129 43.228,358.167 43.228 C 357.204 43.228,356.810 43.256,357.292 43.290 M351.042 44.782 C 351.202 44.823,351.465 44.823,351.625 44.782 C 351.785 44.740,351.654 44.705,351.333 44.705 C 351.012 44.705,350.881 44.740,351.042 44.782 M170.390 47.250 C 170.391 47.983,170.420 48.263,170.456 47.871 C 170.491 47.479,170.490 46.879,170.454 46.537 C 170.419 46.196,170.390 46.517,170.390 47.250 M262.057 47.417 C 262.058 48.150,262.087 48.429,262.122 48.037 C 262.157 47.645,262.157 47.045,262.121 46.704 C 262.085 46.363,262.057 46.683,262.057 47.417 M256.214 49.417 C 256.216 49.875,256.248 50.043,256.286 49.789 C 256.325 49.536,256.324 49.161,256.284 48.956 C 256.244 48.751,256.213 48.958,256.214 49.417 M222.895 51.667 C 222.895 52.629,222.923 53.023,222.956 52.542 C 222.990 52.060,222.990 51.273,222.956 50.792 C 222.923 50.310,222.895 50.704,222.895 51.667 M176.039 50.667 C 176.039 50.987,176.073 51.119,176.115 50.958 C 176.157 50.798,176.157 50.535,176.115 50.375 C 176.073 50.215,176.039 50.346,176.039 50.667 M350.728 53.750 C 350.728 54.667,350.756 55.020,350.790 54.536 C 350.824 54.052,350.823 53.302,350.789 52.869 C 350.755 52.437,350.727 52.833,350.728 53.750 M240.073 52.875 L 239.583 53.417 240.125 52.927 C 240.630 52.471,240.743 52.333,240.615 52.333 C 240.586 52.333,240.342 52.577,240.073 52.875 M360.372 54.833 C 360.372 55.154,360.406 55.285,360.448 55.125 C 360.490 54.965,360.490 54.702,360.448 54.542 C 360.406 54.381,360.372 54.512,360.372 54.833 M132.218 55.917 C 132.219 56.467,132.250 56.672,132.287 56.372 C 132.325 56.072,132.324 55.622,132.286 55.372 C 132.248 55.122,132.217 55.367,132.218 55.917 M297.212 58.833 C 297.212 59.246,297.245 59.415,297.284 59.208 C 297.324 59.002,297.324 58.665,297.284 58.458 C 297.245 58.252,297.212 58.421,297.212 58.833 M350.712 61.000 C 350.712 61.413,350.745 61.581,350.784 61.375 C 350.824 61.169,350.824 60.831,350.784 60.625 C 350.745 60.419,350.712 60.587,350.712 61.000 M273.872 66.833 C 273.872 67.154,273.906 67.285,273.948 67.125 C 273.990 66.965,273.990 66.702,273.948 66.542 C 273.906 66.381,273.872 66.512,273.872 66.833 M256.214 67.750 C 256.216 68.208,256.248 68.376,256.286 68.123 C 256.325 67.869,256.324 67.494,256.284 67.289 C 256.244 67.084,256.213 67.292,256.214 67.750 M170.383 69.833 C 170.383 70.337,170.415 70.544,170.453 70.292 C 170.491 70.040,170.491 69.627,170.453 69.375 C 170.415 69.123,170.383 69.329,170.383 69.833 M103.833 69.750 C 104.144 70.071,104.436 70.333,104.482 70.333 C 104.528 70.333,104.311 70.071,104.000 69.750 C 103.689 69.429,103.397 69.167,103.351 69.167 C 103.305 69.167,103.522 69.429,103.833 69.750 M262.057 70.583 C 262.058 71.317,262.087 71.596,262.122 71.204 C 262.157 70.812,262.157 70.212,262.121 69.871 C 262.085 69.529,262.057 69.850,262.057 70.583 M292.906 70.208 L 292.417 70.750 292.958 70.260 C 293.463 69.804,293.577 69.667,293.448 69.667 C 293.419 69.667,293.175 69.910,292.906 70.208 M176.045 70.667 C 176.045 71.079,176.078 71.248,176.118 71.042 C 176.157 70.835,176.157 70.498,176.118 70.292 C 176.078 70.085,176.045 70.254,176.045 70.667 M167.214 74.417 C 167.216 74.875,167.248 75.043,167.286 74.789 C 167.325 74.536,167.324 74.161,167.284 73.956 C 167.244 73.751,167.213 73.958,167.214 74.417 M179.212 74.333 C 179.212 74.746,179.245 74.915,179.284 74.708 C 179.324 74.502,179.324 74.165,179.284 73.958 C 179.245 73.752,179.212 73.921,179.212 74.333 M269.212 74.333 C 269.212 74.746,269.245 74.915,269.284 74.708 C 269.324 74.502,269.324 74.165,269.284 73.958 C 269.245 73.752,269.212 73.921,269.212 74.333 M91.705 86.333 C 91.705 86.654,91.740 86.785,91.782 86.625 C 91.823 86.465,91.823 86.202,91.782 86.042 C 91.740 85.881,91.705 86.013,91.705 86.333 M207.214 89.250 C 207.216 89.708,207.248 89.876,207.286 89.623 C 207.325 89.369,207.324 88.994,207.284 88.789 C 207.244 88.584,207.213 88.792,207.214 89.250 M259.039 91.500 C 259.039 91.821,259.073 91.952,259.115 91.792 C 259.157 91.631,259.157 91.369,259.115 91.208 C 259.073 91.048,259.039 91.179,259.039 91.500 M136.240 92.708 L 135.750 93.250 136.292 92.760 C 136.590 92.491,136.833 92.248,136.833 92.219 C 136.833 92.090,136.696 92.203,136.240 92.708 M203.705 92.667 C 203.705 92.987,203.740 93.119,203.782 92.958 C 203.823 92.798,203.823 92.535,203.782 92.375 C 203.740 92.215,203.705 92.346,203.705 92.667 M325.740 96.542 L 325.250 97.083 325.792 96.594 C 326.297 96.138,326.410 96.000,326.281 96.000 C 326.252 96.000,326.009 96.244,325.740 96.542 M95.548 96.917 C 95.549 97.375,95.581 97.543,95.620 97.289 C 95.658 97.036,95.657 96.661,95.617 96.456 C 95.578 96.251,95.546 96.458,95.548 96.917 M114.209 97.583 C 114.211 97.950,114.245 98.080,114.285 97.873 C 114.324 97.666,114.323 97.366,114.281 97.206 C 114.239 97.047,114.207 97.217,114.209 97.583 M125.997 98.701 C 125.953 99.223,125.977 99.590,126.052 99.515 C 126.126 99.441,126.162 99.013,126.132 98.565 L 126.078 97.750 125.997 98.701 M129.383 99.667 C 129.383 100.171,129.415 100.377,129.453 100.125 C 129.491 99.873,129.491 99.460,129.453 99.208 C 129.415 98.956,129.383 99.162,129.383 99.667 M179.730 101.000 C 179.730 102.054,179.757 102.485,179.790 101.958 C 179.823 101.431,179.823 100.569,179.790 100.042 C 179.757 99.515,179.730 99.946,179.730 101.000 M271.372 101.000 C 271.372 101.321,271.406 101.452,271.448 101.292 C 271.490 101.131,271.490 100.869,271.448 100.708 C 271.406 100.548,271.372 100.679,271.372 101.000 M126.064 102.667 C 126.064 103.813,126.091 104.281,126.123 103.708 C 126.156 103.135,126.156 102.198,126.123 101.625 C 126.091 101.052,126.064 101.521,126.064 102.667 M310.392 102.417 C 310.392 103.242,310.420 103.600,310.455 103.213 C 310.490 102.827,310.490 102.152,310.456 101.713 C 310.422 101.275,310.393 101.592,310.392 102.417 M250.892 102.917 C 250.892 103.742,250.920 104.100,250.955 103.713 C 250.990 103.327,250.990 102.652,250.956 102.213 C 250.922 101.775,250.893 102.092,250.892 102.917 M220.881 103.083 C 220.882 103.542,220.915 103.709,220.953 103.456 C 220.991 103.203,220.990 102.828,220.951 102.623 C 220.911 102.418,220.880 102.625,220.881 103.083 M134.372 104.667 C 134.372 104.987,134.406 105.119,134.448 104.958 C 134.490 104.798,134.490 104.535,134.448 104.375 C 134.406 104.215,134.372 104.346,134.372 104.667 " stroke="none" fill="#419260" fill-rule="evenodd"></path><path id="path3" d="M170.372 49.000 C 170.372 49.321,170.406 49.452,170.448 49.292 C 170.490 49.131,170.490 48.869,170.448 48.708 C 170.406 48.548,170.372 48.679,170.372 49.000 M336.901 68.000 C 336.901 69.512,336.926 70.131,336.957 69.375 C 336.988 68.619,336.988 67.381,336.957 66.625 C 336.926 65.869,336.901 66.487,336.901 68.000 M262.045 68.667 C 262.045 69.079,262.078 69.248,262.118 69.042 C 262.157 68.835,262.157 68.498,262.118 68.292 C 262.078 68.085,262.045 68.254,262.045 68.667 M284.295 75.287 C 284.594 75.325,285.044 75.324,285.295 75.286 C 285.545 75.248,285.300 75.217,284.750 75.218 C 284.200 75.219,283.995 75.250,284.295 75.287 M293.067 102.333 C 293.067 103.754,293.093 104.335,293.124 103.625 C 293.155 102.915,293.155 101.752,293.124 101.042 C 293.093 100.331,293.067 100.912,293.067 102.333 " stroke="none" fill="#4c9c6a" fill-rule="evenodd"></path><path id="path4" d="M111.375 35.115 C 111.535 35.157,111.798 35.157,111.958 35.115 C 112.119 35.073,111.987 35.039,111.667 35.039 C 111.346 35.039,111.215 35.073,111.375 35.115 M219.042 35.955 C 219.385 35.991,219.948 35.991,220.292 35.955 C 220.635 35.919,220.354 35.889,219.667 35.889 C 218.979 35.889,218.698 35.919,219.042 35.955 M212.621 37.954 C 212.917 37.990,213.442 37.991,213.788 37.955 C 214.134 37.919,213.892 37.889,213.250 37.888 C 212.608 37.887,212.325 37.917,212.621 37.954 M352.542 43.289 C 352.977 43.324,353.690 43.324,354.125 43.289 C 354.560 43.255,354.204 43.227,353.333 43.227 C 352.462 43.227,352.106 43.255,352.542 43.289 M265.875 44.083 C 265.877 44.450,265.911 44.580,265.951 44.373 C 265.991 44.166,265.990 43.866,265.948 43.706 C 265.906 43.547,265.874 43.717,265.875 44.083 M170.375 50.083 C 170.377 50.450,170.411 50.580,170.451 50.373 C 170.491 50.166,170.490 49.866,170.448 49.706 C 170.406 49.547,170.374 49.717,170.375 50.083 M262.052 50.750 C 262.053 51.300,262.084 51.505,262.121 51.205 C 262.158 50.906,262.157 50.456,262.119 50.205 C 262.081 49.955,262.051 50.200,262.052 50.750 M256.209 51.417 C 256.211 51.783,256.245 51.914,256.285 51.706 C 256.324 51.499,256.323 51.199,256.281 51.040 C 256.239 50.880,256.207 51.050,256.209 51.417 M222.872 55.000 C 222.872 55.321,222.906 55.452,222.948 55.292 C 222.990 55.131,222.990 54.869,222.948 54.708 C 222.906 54.548,222.872 54.679,222.872 55.000 M360.393 57.333 C 360.393 58.204,360.422 58.560,360.456 58.125 C 360.490 57.690,360.490 56.977,360.456 56.542 C 360.422 56.106,360.393 56.462,360.393 57.333 M350.705 57.167 C 350.705 57.487,350.740 57.619,350.782 57.458 C 350.823 57.298,350.823 57.035,350.782 56.875 C 350.740 56.715,350.705 56.846,350.705 57.167 M331.708 61.453 C 331.960 61.491,332.373 61.491,332.625 61.453 C 332.877 61.415,332.671 61.383,332.167 61.383 C 331.662 61.383,331.456 61.415,331.708 61.453 M335.375 61.453 C 335.627 61.491,336.040 61.491,336.292 61.453 C 336.544 61.415,336.337 61.383,335.833 61.383 C 335.329 61.383,335.123 61.415,335.375 61.453 M143.708 62.791 C 145.060 62.819,147.273 62.819,148.625 62.791 C 149.977 62.763,148.871 62.740,146.167 62.740 C 143.462 62.740,142.356 62.763,143.708 62.791 M273.872 65.500 C 273.872 65.821,273.906 65.952,273.948 65.792 C 273.990 65.631,273.990 65.369,273.948 65.208 C 273.906 65.048,273.872 65.179,273.872 65.500 M256.205 65.833 C 256.205 66.154,256.240 66.285,256.282 66.125 C 256.323 65.965,256.323 65.702,256.282 65.542 C 256.240 65.381,256.205 65.512,256.205 65.833 M262.056 66.833 C 262.056 67.521,262.085 67.802,262.121 67.458 C 262.157 67.115,262.157 66.552,262.121 66.208 C 262.085 65.865,262.056 66.146,262.056 66.833 M170.375 67.583 C 170.377 67.950,170.411 68.080,170.451 67.873 C 170.491 67.666,170.490 67.366,170.448 67.206 C 170.406 67.047,170.374 67.217,170.375 67.583 M350.872 68.833 C 350.872 69.154,350.906 69.285,350.948 69.125 C 350.990 68.965,350.990 68.702,350.948 68.542 C 350.906 68.381,350.872 68.512,350.872 68.833 M216.039 70.500 C 216.039 70.821,216.073 70.952,216.115 70.792 C 216.157 70.631,216.157 70.369,216.115 70.208 C 216.073 70.048,216.039 70.179,216.039 70.500 M282.627 75.285 C 282.834 75.324,283.134 75.323,283.294 75.281 C 283.453 75.239,283.283 75.207,282.917 75.209 C 282.550 75.211,282.420 75.245,282.627 75.285 M95.567 92.500 C 95.567 93.921,95.593 94.502,95.624 93.792 C 95.655 93.081,95.655 91.919,95.624 91.208 C 95.593 90.498,95.567 91.079,95.567 92.500 M207.209 91.250 C 207.211 91.617,207.245 91.747,207.285 91.540 C 207.324 91.332,207.323 91.032,207.281 90.873 C 207.239 90.714,207.207 90.883,207.209 91.250 M259.045 93.667 C 259.045 94.079,259.078 94.248,259.118 94.042 C 259.157 93.835,259.157 93.498,259.118 93.292 C 259.078 93.085,259.045 93.254,259.045 93.667 M203.705 94.167 C 203.705 94.487,203.740 94.619,203.782 94.458 C 203.823 94.298,203.823 94.035,203.782 93.875 C 203.740 93.715,203.705 93.846,203.705 94.167 M367.275 94.612 C 367.380 94.688,367.505 94.938,367.551 95.167 C 367.624 95.525,367.633 95.516,367.610 95.096 C 367.595 94.821,367.474 94.580,367.333 94.542 C 367.166 94.497,367.147 94.520,367.275 94.612 M129.372 97.667 C 129.372 97.987,129.406 98.119,129.448 97.958 C 129.490 97.798,129.490 97.535,129.448 97.375 C 129.406 97.215,129.372 97.346,129.372 97.667 M114.239 103.083 C 114.239 105.467,114.263 106.418,114.291 105.198 C 114.320 103.979,114.320 102.029,114.291 100.865 C 114.263 99.702,114.239 100.700,114.239 103.083 M250.879 100.333 C 250.879 100.746,250.911 100.915,250.951 100.708 C 250.991 100.502,250.991 100.165,250.951 99.958 C 250.911 99.752,250.879 99.921,250.879 100.333 M229.294 106.285 C 229.501 106.324,229.801 106.323,229.960 106.281 C 230.120 106.239,229.950 106.207,229.583 106.209 C 229.217 106.211,229.086 106.245,229.294 106.285 " stroke="none" fill="#54a174" fill-rule="evenodd"></path></g></svg>